# xmcd
#
# Track frame offsets:
#	150
#	34120
#	90319
#	130292
#	161795
#	185957
#	205633
#	226811
#	252153
#	292077
#	331732
#
# Disc length: 4726 seconds
#
# Revision: 1
# Processed by: cddbd v1.5.2PL0 Copyright (c) Steve Scherf et al.
# Submitted via: audiograbber 1.83.01
#
DISCID=9712740b
DTITLE=Grateful Dead - 82-09-17 Cumberland County Civic Centre, Portland ME
DYEAR=1900
DGENRE=
TTITLE0=High Time
TTITLE1=Estimated Prophet
TTITLE2=Eyes Of The World
TTITLE3=Drums
TTITLE4=Space
TTITLE5=Spanish Jam
TTITLE6=The Other One
TTITLE7=Going Down The Road Feeling Bad
TTITLE8=Morning Dew
TTITLE9=Sugar Magnolia
TTITLE10=US Blues
EXTD=
EXTT0=
EXTT1=
EXTT2=
EXTT3=
EXTT4=
EXTT5=
EXTT6=
EXTT7=
EXTT8=
EXTT9=
EXTT10=
PLAYORDER=
